<svg xmlns="http://www.w3.org/2000/svg" width="761.137" height="904" viewBox="0 0 761.137 904"><g transform="translate(-579.931 -41.001)"><g transform="translate(710 445)" fill="rgba(255,255,255,0)" stroke="#55ae61" stroke-linejoin="round" stroke-width="80"><rect width="500" height="500" rx="101" stroke="none"/><rect x="40" y="40" width="420" height="420" rx="61" fill="none"/></g><line y1="324" x2="324" transform="translate(636.5 265.5)" fill="none" stroke="#ffe433" stroke-linecap="round" stroke-width="80"/><line x1="324" y1="324" transform="translate(960.5 265.5)" fill="none" stroke="#ffe433" stroke-linecap="round" stroke-width="80"/><g transform="translate(173 -429)"><path d="M-2661.646-7.144h0L-2697-42.5a201.429,201.429,0,0,1,29.59-24.39A200.025,200.025,0,0,1-2633.455-85.3a198.991,198.991,0,0,1,37.518-11.637A201.478,201.478,0,0,1-2555.658-101a201.484,201.484,0,0,1,40.279,4.058A198.991,198.991,0,0,1-2477.861-85.3a200.014,200.014,0,0,1,33.956,18.415,201.432,201.432,0,0,1,29.59,24.39L-2449.67-7.145A149.019,149.019,0,0,0-2555.657-51,149.025,149.025,0,0,0-2661.645-7.145Z" transform="translate(3343.657 571)" fill="#33a7ff"/><path d="M-2617.758,128.15A100.71,100.71,0,0,1-2603,115.985a100.082,100.082,0,0,1,16.987-9.22,99.374,99.374,0,0,1,38.925-7.859,99.369,99.369,0,0,1,38.924,7.859,100.082,100.082,0,0,1,16.987,9.22,100.753,100.753,0,0,1,14.753,12.164l-35.372,35.372a49.842,49.842,0,0,0-35.292-14.615,49.845,49.845,0,0,0-35.293,14.616Z" transform="translate(3335.093 471.093)" fill="#33a7ff"/></g></g></svg>